<svg width="24" height="24" viewBox="0 0 24 24" fill="none" xmlns="http://www.w3.org/2000/svg">
<path d="M11.5 12.2441C14.5376 12.2441 17 9.78171 17 6.74414C17 3.70657 14.5376 1.24414 11.5 1.24414C8.46243 1.24414 6 3.70657 6 6.74414C6 9.78171 8.46243 12.2441 11.5 12.2441Z" fill="#09A5DC"/>
<path fill-rule="evenodd" clip-rule="evenodd" d="M12.925 21.756C11.8469 20.6012 11.2482 19.0798 11.25 17.5C11.25 15.817 11.917 14.288 13.001 13.164C12.511 13.126 12.01 13.106 11.5 13.106C8.178 13.106 5.237 13.937 3.411 15.182C2.018 16.132 1.25 17.339 1.25 18.606V20.056C1.24961 20.2793 1.29331 20.5006 1.3786 20.707C1.4639 20.9134 1.5891 21.101 1.74704 21.2589C1.90498 21.4169 2.09254 21.5421 2.29897 21.6274C2.50541 21.7126 2.72664 21.7564 2.95 21.756H12.925Z" fill="#09A5DC"/>
<path fill-rule="evenodd" clip-rule="evenodd" d="M17.5 12.25C14.602 12.25 12.25 14.602 12.25 17.5C12.25 20.398 14.602 22.75 17.5 22.75C20.398 22.75 22.75 20.398 22.75 17.5C22.75 14.602 20.398 12.25 17.5 12.25ZM16.75 17.5V20C16.75 20.1989 16.829 20.3897 16.9697 20.5303C17.1103 20.671 17.3011 20.75 17.5 20.75C17.6989 20.75 17.8897 20.671 18.0303 20.5303C18.171 20.3897 18.25 20.1989 18.25 20V17.5C18.25 17.3011 18.171 17.1103 18.0303 16.9697C17.8897 16.829 17.6989 16.75 17.5 16.75C17.3011 16.75 17.1103 16.829 16.9697 16.9697C16.829 17.1103 16.75 17.3011 16.75 17.5ZM17.5 14.25C17.7652 14.25 18.0196 14.3554 18.2071 14.5429C18.3946 14.7304 18.5 14.9848 18.5 15.25C18.5 15.5152 18.3946 15.7696 18.2071 15.9571C18.0196 16.1446 17.7652 16.25 17.5 16.25C17.2348 16.25 16.9804 16.1446 16.7929 15.9571C16.6054 15.7696 16.5 15.5152 16.5 15.25C16.5 14.9848 16.6054 14.7304 16.7929 14.5429C16.9804 14.3554 17.2348 14.25 17.5 14.25Z" fill="#09A5DC"/>
</svg>
