<svg width="24" height="24" viewBox="0 0 24 24" fill="none" xmlns="http://www.w3.org/2000/svg">
<path d="M15.9983 17.4383C15.2229 18.1771 14.3764 18.0604 13.5614 17.7105C12.699 17.3528 11.9079 17.3372 10.998 17.7105C9.85868 18.1927 9.25738 18.0527 8.57696 17.4383C4.71596 13.5266 5.28562 7.56955 9.6688 7.3518C10.7369 7.40624 11.4806 7.92728 12.1057 7.97394C13.0393 7.7873 13.9333 7.2507 14.9302 7.32069C16.1249 7.41401 17.0268 7.88062 17.6202 8.72052C15.1517 10.1748 15.7372 13.371 18 14.2654C17.549 15.4319 16.9635 16.5906 15.9904 17.4461L15.9983 17.4383ZM12.0265 7.30514C11.9079 5.57091 13.3399 4.13998 14.9856 4C15.215 6.00641 13.1342 7.49956 12.0265 7.30514Z" fill="black"/>
</svg>
