<svg width="24" height="24" viewBox="0 0 24 24" fill="none" xmlns="http://www.w3.org/2000/svg">
<path fill-rule="evenodd" clip-rule="evenodd" d="M20.75 3V22C20.7499 22.1364 20.7127 22.2703 20.6422 22.3871C20.5717 22.5039 20.4707 22.5993 20.35 22.663C20.2294 22.7267 20.0936 22.7562 19.9574 22.7485C19.8212 22.7407 19.6897 22.6959 19.577 22.619L17.082 20.916L14.723 22.609C14.5856 22.708 14.4187 22.7574 14.2496 22.7492C14.0805 22.7411 13.9192 22.6758 13.792 22.564L12 20.997L10.208 22.564C10.0808 22.6758 9.91948 22.7411 9.75037 22.7492C9.58125 22.7574 9.41437 22.708 9.277 22.609L6.918 20.916L4.423 22.619C4.31033 22.6959 4.17881 22.7407 4.0426 22.7485C3.90638 22.7562 3.77063 22.7267 3.64997 22.663C3.5293 22.5993 3.42829 22.5039 3.35781 22.3871C3.28734 22.2703 3.25006 22.1364 3.25 22V3C3.25 2.034 4.033 1.25 5 1.25H19C19.967 1.25 20.75 2.034 20.75 3ZM8 10.75H16C16.1989 10.75 16.3897 10.671 16.5303 10.5303C16.671 10.3897 16.75 10.1989 16.75 10C16.75 9.80109 16.671 9.61032 16.5303 9.46967C16.3897 9.32902 16.1989 9.25 16 9.25H8C7.80109 9.25 7.61032 9.32902 7.46967 9.46967C7.32902 9.61032 7.25 9.80109 7.25 10C7.25 10.1989 7.32902 10.3897 7.46967 10.5303C7.61032 10.671 7.80109 10.75 8 10.75ZM8 6.75H16C16.1989 6.75 16.3897 6.67098 16.5303 6.53033C16.671 6.38968 16.75 6.19891 16.75 6C16.75 5.80109 16.671 5.61032 16.5303 5.46967C16.3897 5.32902 16.1989 5.25 16 5.25H8C7.80109 5.25 7.61032 5.32902 7.46967 5.46967C7.32902 5.61032 7.25 5.80109 7.25 6C7.25 6.19891 7.32902 6.38968 7.46967 6.53033C7.61032 6.67098 7.80109 6.75 8 6.75ZM8 14.75H12C12.1989 14.75 12.3897 14.671 12.5303 14.5303C12.671 14.3897 12.75 14.1989 12.75 14C12.75 13.8011 12.671 13.6103 12.5303 13.4697C12.3897 13.329 12.1989 13.25 12 13.25H8C7.80109 13.25 7.61032 13.329 7.46967 13.4697C7.32902 13.6103 7.25 13.8011 7.25 14C7.25 14.1989 7.32902 14.3897 7.46967 14.5303C7.61032 14.671 7.80109 14.75 8 14.75Z" fill="#09A5DC"/>
</svg>
