<svg width="26" height="26" viewBox="0 0 26 26" fill="none" xmlns="http://www.w3.org/2000/svg">
<path d="M22.3281 2.34197V1.74073C22.3268 1.27943 22.143 0.837381 21.8169 0.511194C21.4907 0.185008 21.0486 0.00121856 20.5873 0C20.1258 0.000503172 19.6833 0.184063 19.357 0.510404C19.0307 0.836745 18.8471 1.27921 18.8466 1.74073V2.31373H17.0651V1.74073C17.0651 1.27953 16.8821 0.837179 16.5562 0.510807C16.2304 0.184435 15.7883 0.000719501 15.3271 0C14.8656 0.000574892 14.4232 0.184157 14.0969 0.510483C13.7705 0.836809 13.587 1.27924 13.5864 1.74073V2.31373H11.8049V1.74073C11.8049 1.51231 11.7599 1.28613 11.6725 1.0751C11.5851 0.864071 11.457 0.672324 11.2955 0.510808C11.134 0.349293 10.9422 0.221171 10.7312 0.13376C10.5201 0.0463481 10.294 0.0013576 10.0655 0.0013576C9.83713 0.0013576 9.61095 0.0463481 9.39992 0.13376C9.18889 0.221171 8.99714 0.349293 8.83563 0.510808C8.67411 0.672324 8.54599 0.864071 8.45858 1.0751C8.37117 1.28613 8.32618 1.51231 8.32618 1.74073V2.31373H6.54471V1.74073C6.54349 1.27943 6.3597 0.837381 6.03352 0.511194C5.70733 0.185008 5.26528 0.00121856 4.80398 0C4.34249 0.000574892 3.90006 0.184157 3.57373 0.510483C3.24741 0.836809 3.06383 1.27924 3.06325 1.74073V2.34197C2.21886 2.4461 1.44157 2.85504 0.877482 3.49194C0.313394 4.12884 0.00134929 4.94984 0 5.80062V21.9044C0.00107808 22.8289 0.368792 23.7151 1.02248 24.3688C1.67616 25.0225 2.56244 25.3902 3.48689 25.3913H21.9044C22.8289 25.3902 23.7151 25.0225 24.3688 24.3688C25.0225 23.7151 25.3902 22.8289 25.3913 21.9044V5.80062C25.39 4.94984 25.0779 4.12884 24.5138 3.49194C23.9497 2.85504 23.1724 2.4461 22.3281 2.34197ZM19.7971 1.74073C19.7974 1.53123 19.8807 1.33039 20.0288 1.18225C20.177 1.03412 20.3778 0.950764 20.5873 0.950477C20.7965 0.951759 20.9968 1.03543 21.1447 1.18335C21.2926 1.33128 21.3763 1.53154 21.3776 1.74073V3.83721C21.3776 4.0468 21.2943 4.2478 21.1461 4.396C20.9979 4.5442 20.7969 4.62746 20.5873 4.62746C20.3777 4.62746 20.1767 4.5442 20.0285 4.396C19.8803 4.2478 19.7971 4.0468 19.7971 3.83721V1.74073ZM14.5369 1.74073C14.5371 1.53121 14.6204 1.33033 14.7686 1.18217C14.9167 1.03402 15.1176 0.950692 15.3271 0.950477C15.5363 0.951124 15.7366 1.03468 15.8842 1.18282C16.0319 1.33095 16.1147 1.53159 16.1147 1.74073V3.83721C16.1147 4.04644 16.0315 4.2471 15.8836 4.39504C15.7356 4.54299 15.535 4.62611 15.3258 4.62611C15.1165 4.62611 14.9159 4.54299 14.7679 4.39504C14.62 4.2471 14.5369 4.04644 14.5369 3.83721V1.74073ZM9.27665 1.74073C9.27665 1.5315 9.35977 1.33084 9.50771 1.1829C9.65566 1.03495 9.85632 0.951834 10.0655 0.951834C10.2748 0.951834 10.4754 1.03495 10.6234 1.1829C10.7713 1.33084 10.8544 1.5315 10.8544 1.74073V3.83721C10.8544 4.04644 10.7713 4.2471 10.6234 4.39504C10.4754 4.54299 10.2748 4.62611 10.0655 4.62611C9.85632 4.62611 9.65566 4.54299 9.50771 4.39504C9.35977 4.2471 9.27665 4.04644 9.27665 3.83721V1.74073ZM4.01373 1.74073C4.01394 1.53121 4.09727 1.33033 4.24543 1.18217C4.39358 1.03402 4.59446 0.950692 4.80398 0.950477C5.01317 0.951759 5.21343 1.03543 5.36136 1.18335C5.50928 1.33128 5.59295 1.53154 5.59423 1.74073V3.83721C5.59423 4.0468 5.51098 4.2478 5.36277 4.396C5.21457 4.5442 5.01357 4.62746 4.80398 4.62746C4.59439 4.62746 4.39339 4.5442 4.24519 4.396C4.09699 4.2478 4.01373 4.0468 4.01373 3.83721V1.74073ZM3.06325 3.3025V3.83721C3.06325 4.29888 3.24665 4.74164 3.5731 5.06809C3.89955 5.39454 4.34231 5.57794 4.80398 5.57794C5.26565 5.57794 5.70841 5.39454 6.03486 5.06809C6.36131 4.74164 6.54471 4.29888 6.54471 3.83721V3.26421H8.32618V3.83721C8.32618 4.29852 8.50943 4.74094 8.83563 5.06713C9.16182 5.39333 9.60424 5.57658 10.0655 5.57658C10.5269 5.57658 10.9693 5.39333 11.2955 5.06713C11.6217 4.74094 11.8049 4.29852 11.8049 3.83721V3.26421H13.5864V3.83721C13.5864 4.29852 13.7696 4.74094 14.0958 5.06713C14.422 5.39333 14.8644 5.57658 15.3258 5.57658C15.7871 5.57658 16.2295 5.39333 16.5557 5.06713C16.8819 4.74094 17.0651 4.29852 17.0651 3.83721V3.26421H18.8466V3.83721C18.8466 4.29888 19.03 4.74164 19.3564 5.06809C19.6829 5.39454 20.1257 5.57794 20.5873 5.57794C21.049 5.57794 21.4918 5.39454 21.8182 5.06809C22.1447 4.74164 22.3281 4.29888 22.3281 3.83721V3.3025C22.9183 3.40293 23.454 3.70874 23.8406 4.16591C24.2273 4.62307 24.4398 5.20217 24.4408 5.80089V7.23123H0.950477V5.80062C0.951537 5.20195 1.16415 4.62291 1.55075 4.1658C1.93735 3.70869 2.47306 3.40292 3.06325 3.3025ZM21.9044 24.4408H3.48689C2.81444 24.44 2.16975 24.1726 1.69425 23.6971C1.21875 23.2216 0.951267 22.5769 0.950477 21.9044V8.18225H24.4408V21.9044C24.44 22.5769 24.1726 23.2216 23.6971 23.6971C23.2216 24.1726 22.5769 24.44 21.9044 24.4408Z" fill="#44475C"/>
<path d="M6.63548 10.5598H4.7166C4.38255 10.5602 4.0623 10.6931 3.82608 10.9294C3.58987 11.1656 3.45697 11.4858 3.45654 11.8199V13.7388C3.45697 14.0728 3.58987 14.3931 3.82608 14.6293C4.0623 14.8655 4.38255 14.9984 4.7166 14.9988H6.63548C6.96954 14.9984 7.28979 14.8655 7.526 14.6293C7.76221 14.3931 7.89511 14.0728 7.89554 13.7388V11.8199C7.89511 11.4858 7.76221 11.1656 7.526 10.9294C7.28979 10.6931 6.96954 10.5602 6.63548 10.5598ZM6.94506 13.7388C6.94499 13.8208 6.91235 13.8995 6.85431 13.9576C6.79627 14.0156 6.71756 14.0483 6.63548 14.0483H4.7166C4.63452 14.0483 4.55582 14.0156 4.49777 13.9576C4.43973 13.8995 4.40709 13.8208 4.40702 13.7388V11.8199C4.40709 11.7378 4.43973 11.6591 4.49777 11.601C4.55582 11.543 4.63452 11.5104 4.7166 11.5103H6.63548C6.71756 11.5104 6.79627 11.543 6.85431 11.601C6.91235 11.6591 6.94499 11.7378 6.94506 11.8199V13.7388ZM13.6552 10.5598H11.7363C11.4022 10.5602 11.082 10.6931 10.8458 10.9294C10.6095 11.1656 10.4767 11.4858 10.4762 11.8199V13.7388C10.4767 14.0728 10.6095 14.3931 10.8458 14.6293C11.082 14.8655 11.4022 14.9984 11.7363 14.9988H13.6552C13.9892 14.9984 14.3095 14.8655 14.5457 14.6293C14.7819 14.3931 14.9148 14.0728 14.9152 13.7388V11.8199C14.9148 11.4858 14.7819 11.1656 14.5457 10.9294C14.3095 10.6931 13.9892 10.5602 13.6552 10.5598ZM13.9647 13.7388C13.9647 13.8208 13.932 13.8995 13.874 13.9576C13.8159 14.0156 13.7372 14.0483 13.6552 14.0483H11.7363C11.6542 14.0483 11.5755 14.0156 11.5175 13.9576C11.4594 13.8995 11.4268 13.8208 11.4267 13.7388V11.8199C11.4268 11.7378 11.4594 11.6591 11.5175 11.601C11.5755 11.543 11.6542 11.5104 11.7363 11.5103H13.6552C13.7372 11.5104 13.8159 11.543 13.874 11.601C13.932 11.6591 13.9647 11.7378 13.9647 11.8199V13.7388ZM21.2907 11.2099L19.159 13.3406L18.139 12.3206C18.0493 12.2341 17.9293 12.1862 17.8047 12.1873C17.68 12.1884 17.5609 12.2384 17.4728 12.3266C17.3847 12.4147 17.3347 12.5339 17.3337 12.6585C17.3326 12.7831 17.3805 12.9032 17.4671 12.9928L18.823 14.3487C18.8671 14.3929 18.9195 14.4279 18.9772 14.4518C19.0349 14.4757 19.0967 14.488 19.1591 14.488C19.2215 14.488 19.2833 14.4757 19.341 14.4518C19.3987 14.4279 19.451 14.3929 19.4952 14.3487L21.9629 11.881C22.007 11.8368 22.042 11.7845 22.0659 11.7268C22.0898 11.6691 22.1021 11.6073 22.1021 11.5449C22.1021 11.4825 22.0898 11.4207 22.0659 11.363C22.042 11.3054 22.007 11.253 21.9629 11.2089C21.9187 11.1647 21.8663 11.1297 21.8087 11.1058C21.751 11.0819 21.6892 11.0697 21.6268 11.0697C21.5644 11.0697 21.5026 11.0819 21.4449 11.1058C21.3873 11.1297 21.3349 11.1647 21.2907 11.2089V11.2099ZM6.63548 17.1062H4.7166C4.38255 17.1066 4.0623 17.2395 3.82608 17.4757C3.58987 17.7119 3.45697 18.0322 3.45654 18.3662V20.2851C3.45697 20.6191 3.58987 20.9394 3.82608 21.1756C4.0623 21.4118 4.38255 21.5447 4.7166 21.5452H6.63548C6.96954 21.5447 7.28979 21.4118 7.526 21.1756C7.76221 20.9394 7.89511 20.6191 7.89554 20.2851V18.3662C7.89511 18.0322 7.76221 17.7119 7.526 17.4757C7.28979 17.2395 6.96954 17.1066 6.63548 17.1062ZM6.94506 20.2851C6.94499 20.3672 6.91235 20.4459 6.85431 20.5039C6.79627 20.562 6.71756 20.5946 6.63548 20.5947H4.7166C4.63452 20.5946 4.55582 20.562 4.49777 20.5039C4.43973 20.4459 4.40709 20.3672 4.40702 20.2851V18.3662C4.40709 18.2841 4.43973 18.2054 4.49777 18.1474C4.55582 18.0893 4.63452 18.0567 4.7166 18.0566H6.63548C6.71756 18.0567 6.79627 18.0893 6.85431 18.1474C6.91235 18.2054 6.94499 18.2841 6.94506 18.3662V20.2851ZM13.6552 17.1062H11.7363C11.4022 17.1066 11.082 17.2395 10.8458 17.4757C10.6095 17.7119 10.4767 18.0322 10.4762 18.3662V20.2851C10.4767 20.6191 10.6095 20.9394 10.8458 21.1756C11.082 21.4118 11.4022 21.5447 11.7363 21.5452H13.6552C13.9892 21.5447 14.3095 21.4118 14.5457 21.1756C14.7819 20.9394 14.9148 20.6191 14.9152 20.2851V18.3662C14.9148 18.0322 14.7819 17.7119 14.5457 17.4757C14.3095 17.2395 13.9892 17.1066 13.6552 17.1062ZM13.9647 20.2851C13.9647 20.3672 13.932 20.4459 13.874 20.5039C13.8159 20.562 13.7372 20.5946 13.6552 20.5947H11.7363C11.6542 20.5946 11.5755 20.562 11.5175 20.5039C11.4594 20.4459 11.4268 20.3672 11.4267 20.2851V18.3662C11.4268 18.2841 11.4594 18.2054 11.5175 18.1474C11.5755 18.0893 11.6542 18.0567 11.7363 18.0566H13.6552C13.7372 18.0567 13.8159 18.0893 13.874 18.1474C13.932 18.2054 13.9647 18.2841 13.9647 18.3662V20.2851ZM20.6748 17.1062H18.756C18.4219 17.1066 18.1017 17.2395 17.8654 17.4757C17.6292 17.7119 17.4963 18.0322 17.4959 18.3662V20.2851C17.4963 20.6191 17.6292 20.9394 17.8654 21.1756C18.1017 21.4118 18.4219 21.5447 18.756 21.5452H20.6748C21.0089 21.5447 21.3291 21.4118 21.5654 21.1756C21.8016 20.9394 21.9345 20.6191 21.9349 20.2851V18.3662C21.9345 18.0322 21.8016 17.7119 21.5654 17.4757C21.3291 17.2395 21.0089 17.1066 20.6748 17.1062ZM20.9844 20.2851C20.9843 20.3672 20.9517 20.4459 20.8937 20.5039C20.8356 20.562 20.7569 20.5946 20.6748 20.5947H18.756C18.6739 20.5946 18.5952 20.562 18.5371 20.5039C18.4791 20.4459 18.4464 20.3672 18.4464 20.2851V18.3662C18.4464 18.2841 18.4791 18.2054 18.5371 18.1474C18.5952 18.0893 18.6739 18.0567 18.756 18.0566H20.6748C20.7569 18.0567 20.8356 18.0893 20.8937 18.1474C20.9517 18.2054 20.9843 18.2841 20.9844 18.3662V20.2851Z" fill="#44475C"/>
</svg>
