<svg width="27" height="27" viewBox="0 0 27 27" fill="none" xmlns="http://www.w3.org/2000/svg">
<path d="M5.12459 19.9918C4.49167 19.991 3.88489 19.7392 3.43735 19.2917C2.98981 18.8442 2.73806 18.2374 2.7373 17.6045V11.7982C2.7373 11.165 2.98882 10.5578 3.43652 10.1101C3.88423 9.66241 4.49144 9.41089 5.12459 9.41089C5.75774 9.41089 6.36495 9.66241 6.81266 10.1101C7.26036 10.5578 7.51188 11.165 7.51188 11.7982V17.6045C7.51113 18.2374 7.25937 18.8442 6.81183 19.2917C6.36429 19.7392 5.75751 19.991 5.12459 19.9918ZM5.12459 10.419C4.75893 10.4194 4.40837 10.5648 4.14981 10.8234C3.89125 11.082 3.74581 11.4325 3.7454 11.7982V17.6045C3.7454 17.9703 3.8907 18.3211 4.14935 18.5797C4.408 18.8384 4.75881 18.9837 5.12459 18.9837C5.49038 18.9837 5.84118 18.8384 6.09983 18.5797C6.35848 18.3211 6.50379 17.9703 6.50379 17.6045V11.7982C6.50345 11.4325 6.35804 11.0819 6.09946 10.8233C5.84088 10.5647 5.49027 10.4193 5.12459 10.419Z" fill="#44475C"/>
<path d="M3.24117 18.1602H3.01498C2.39178 18.1593 1.79438 17.9112 1.35377 17.4705C0.913155 17.0298 0.665301 16.4323 0.664551 15.8091V13.5482C0.665301 12.9248 0.913242 12.3273 1.35399 11.8865C1.79474 11.4458 2.3923 11.1979 3.01561 11.1971H3.2418C3.37548 11.1971 3.50369 11.2502 3.59821 11.3447C3.69274 11.4393 3.74585 11.5675 3.74585 11.7011V17.6552C3.74597 17.7215 3.733 17.7872 3.70769 17.8485C3.68237 17.9098 3.64521 17.9655 3.59833 18.0124C3.55144 18.0593 3.49576 18.0965 3.43447 18.1219C3.37318 18.1473 3.30749 18.1603 3.24117 18.1602ZM2.73712 12.2342C2.43613 12.2983 2.16625 12.4638 1.97252 12.7029C1.77879 12.9421 1.67294 13.2404 1.67264 13.5482V15.8091C1.67303 16.1169 1.77899 16.4153 1.97283 16.6545C2.16667 16.8936 2.43667 17.059 2.73775 17.1231L2.73712 12.2342ZM21.596 19.9918C20.9631 19.991 20.3563 19.7392 19.9088 19.2917C19.4612 18.8442 19.2095 18.2374 19.2087 17.6045V11.7982C19.2087 11.165 19.4602 10.5578 19.9079 10.1101C20.3556 9.66241 20.9628 9.41089 21.596 9.41089C22.2291 9.41089 22.8364 9.66241 23.2841 10.1101C23.7318 10.5578 23.9833 11.165 23.9833 11.7982V17.6045C23.9825 18.2374 23.7308 18.8442 23.2832 19.2917C22.8357 19.7392 22.2289 19.991 21.596 19.9918ZM21.596 10.419C21.2303 10.4193 20.8797 10.5647 20.6211 10.8233C20.3626 11.0819 20.2171 11.4325 20.2168 11.7982V17.6045C20.2168 17.9703 20.3621 18.3211 20.6208 18.5797C20.8794 18.8384 21.2302 18.9837 21.596 18.9837C21.9618 18.9837 22.3126 18.8384 22.5712 18.5797C22.8299 18.3211 22.9752 17.9703 22.9752 17.6045V11.7982C22.9748 11.4325 22.8293 11.082 22.5708 10.8234C22.3122 10.5648 21.9617 10.4194 21.596 10.419Z" fill="#44475C"/>
<path d="M23.7056 18.1602H23.4794C23.3457 18.1602 23.2175 18.1071 23.123 18.0126C23.0285 17.918 22.9754 17.7898 22.9754 17.6561V11.7021C22.9754 11.5684 23.0285 11.4402 23.123 11.3457C23.2175 11.2512 23.3457 11.1981 23.4794 11.1981H23.7056C24.3286 11.199 24.9259 11.4469 25.3665 11.8874C25.8071 12.3279 26.055 12.9251 26.056 13.5482V15.8091C26.0553 16.4323 25.8074 17.0298 25.3668 17.4705C24.9262 17.9113 24.3288 18.1593 23.7056 18.1602ZM23.9835 12.2342V17.1231C24.2844 17.0589 24.5543 16.8934 24.748 16.6543C24.9417 16.4152 25.0476 16.1169 25.0479 15.8091V13.5482C25.0476 13.2404 24.9418 12.9421 24.7481 12.7029C24.5543 12.4638 24.2845 12.2984 23.9835 12.2342ZM5.93862 10.6033C5.80493 10.6033 5.67673 10.5502 5.5822 10.4557C5.48768 10.3611 5.43457 10.2329 5.43457 10.0992C5.44213 5.48407 8.99786 1.72925 13.3604 1.72925C17.7229 1.72925 21.2783 5.48313 21.2862 10.0983C21.2862 10.232 21.2331 10.3602 21.1385 10.4547C21.044 10.5492 20.9158 10.6023 20.7821 10.6023C20.6485 10.6023 20.5202 10.5492 20.4257 10.4547C20.3312 10.3602 20.2781 10.232 20.2781 10.0983C20.2712 6.03978 17.1678 2.73671 13.3604 2.73671C9.55294 2.73671 6.44959 6.03978 6.44266 10.1002C6.44241 10.2337 6.3892 10.3617 6.2947 10.456C6.2002 10.5503 6.07213 10.6033 5.93862 10.6033Z" fill="#44475C"/>
<path d="M22.41 10.6032C22.2763 10.6032 22.1481 10.5501 22.0536 10.4556C21.9591 10.3611 21.906 10.2329 21.906 10.0992C21.9025 7.66654 21.0097 5.381 19.3921 3.66315C17.7791 1.95129 15.6369 1.00809 13.3602 1.00809C11.0835 1.00809 8.94098 1.95129 7.32803 3.6641C5.71067 5.38163 4.8182 7.66717 4.81473 10.0998C4.81473 10.2335 4.76163 10.3617 4.6671 10.4562C4.57257 10.5508 4.44437 10.6039 4.31069 10.6039C4.17701 10.6039 4.0488 10.5508 3.95427 10.4562C3.85974 10.3617 3.80664 10.2335 3.80664 10.0998C3.81042 7.40979 4.80024 4.87948 6.59433 2.9745C8.39976 1.05598 10.8025 0 13.3602 0C15.9179 0 18.3206 1.05598 20.1261 2.97292C21.9217 4.8779 22.9103 7.40853 22.9141 10.0986C22.9141 10.2322 22.861 10.3604 22.7664 10.455C22.6719 10.5495 22.5437 10.6026 22.41 10.6026V10.6032ZM13.3602 25.2338C13.2265 25.2338 13.0983 25.1807 13.0038 25.0862C12.9093 24.9916 12.8562 24.8634 12.8562 24.7297C12.8562 24.5961 12.9093 24.4679 13.0038 24.3733C13.0983 24.2788 13.2265 24.2257 13.3602 24.2257C15.2888 24.2257 17.138 23.7166 18.5667 22.7926C19.9443 21.9024 20.8213 20.6974 21.0384 19.4032C21.0605 19.2714 21.1341 19.1537 21.2429 19.0761C21.3518 18.9985 21.487 18.9674 21.6188 18.9895C21.7507 19.0116 21.8683 19.0851 21.9459 19.194C22.0235 19.3028 22.0547 19.438 22.0326 19.5699C21.7683 21.1479 20.7319 22.5942 19.1142 23.6391C17.5242 24.6667 15.481 25.2338 13.3602 25.2338Z" fill="#44475C"/>
<path d="M12.3835 26.2103H11.0812C10.6885 26.2103 10.3119 26.0543 10.0343 25.7766C9.75658 25.499 9.60059 25.1223 9.60059 24.7297C9.60059 24.337 9.75658 23.9604 10.0343 23.6827C10.3119 23.405 10.6885 23.249 11.0812 23.249H12.3835C12.7762 23.249 13.1528 23.405 13.4305 23.6827C13.7082 23.9604 13.8642 24.337 13.8642 24.7297C13.8642 25.1223 13.7082 25.499 13.4305 25.7766C13.1528 26.0543 12.7762 26.2103 12.3835 26.2103ZM11.0812 24.2571C10.9559 24.2571 10.8357 24.3069 10.7471 24.3955C10.6585 24.4841 10.6087 24.6043 10.6087 24.7297C10.6087 24.855 10.6585 24.9752 10.7471 25.0638C10.8357 25.1524 10.9559 25.2022 11.0812 25.2022H12.3835C12.5089 25.2022 12.6291 25.1524 12.7177 25.0638C12.8063 24.9752 12.8561 24.855 12.8561 24.7297C12.8561 24.6043 12.8063 24.4841 12.7177 24.3955C12.6291 24.3069 12.5089 24.2571 12.3835 24.2571H11.0812Z" fill="#44475C"/>
</svg>
