<svg width="24" height="24" viewBox="0 0 24 24" fill="none" xmlns="http://www.w3.org/2000/svg">
<path d="M11.7267 15.5043C11.6546 15.4917 11.5837 15.4729 11.5147 15.4483C11.3027 15.3843 11.1027 15.3003 10.8947 15.1923C10.8427 15.1683 10.7867 15.1323 10.7187 15.0883C10.4027 14.9043 10.0987 14.6643 9.7947 14.3603C9.4947 14.0563 9.2547 13.7563 9.0707 13.4403C9.0667 13.4363 9.0627 13.4283 9.0587 13.4243C9.0267 13.3723 8.9947 13.3163 8.9627 13.2563C8.8587 13.0563 8.7747 12.8563 8.7067 12.6243C8.6827 12.5643 8.6667 12.5003 8.6507 12.4203C8.63181 12.3472 8.61686 12.2731 8.6059 12.1983L3.6075 7.20031C2.9155 7.97631 2.5515 9.02511 2.5587 10.2563C2.5627 11.1563 2.7587 12.1243 3.1387 13.1323C3.2307 13.3763 3.3387 13.6243 3.4507 13.8723C4.1027 15.2803 5.0827 16.6603 6.2867 17.8643C7.4947 19.0723 8.8787 20.0563 10.2867 20.7083C10.5307 20.8203 10.7787 20.9243 11.0267 21.0203C12.0267 21.4003 12.9947 21.5923 13.9027 21.6003H13.9427C15.1583 21.6003 16.1919 21.2359 16.9587 20.5515L11.9611 15.5531C11.8823 15.541 11.8042 15.5247 11.7271 15.5043H11.7267ZM16.5739 6.80191C16.48 6.75253 16.3704 6.7424 16.2691 6.77375C16.1678 6.8051 16.0831 6.87536 16.0335 6.96911L14.4375 9.99631C14.4057 10.0573 14.3901 10.1255 14.3922 10.1942C14.3943 10.263 14.414 10.3301 14.4496 10.389C14.4851 10.4479 14.5351 10.4967 14.5949 10.5307C14.6548 10.5647 14.7223 10.5828 14.7911 10.5831H16.7723V11.5911C16.7723 11.6972 16.8144 11.7989 16.8895 11.874C16.9645 11.949 17.0662 11.9911 17.1723 11.9911C17.2784 11.9911 17.3801 11.949 17.4551 11.874C17.5302 11.7989 17.5723 11.6972 17.5723 11.5911V10.5831H17.8731C17.9792 10.5831 18.0809 10.541 18.1559 10.466C18.231 10.3909 18.2731 10.2892 18.2731 10.1831C18.2731 10.077 18.231 9.97528 18.1559 9.90027C18.0809 9.82525 17.9792 9.78311 17.8731 9.78311H17.5723V9.09111C17.5723 8.98502 17.5302 8.88328 17.4551 8.80827C17.3801 8.73325 17.2784 8.69111 17.1723 8.69111C17.0662 8.69111 16.9645 8.73325 16.8895 8.80827C16.8144 8.88328 16.7723 8.98502 16.7723 9.09111V9.78311H15.4539L16.7411 7.34231C16.7906 7.24848 16.8008 7.13883 16.7694 7.03748C16.7381 6.93614 16.6677 6.8514 16.5739 6.80191ZM13.7095 7.45191C13.5597 7.29085 13.3783 7.16238 13.1767 7.0745C12.975 6.98661 12.7575 6.94121 12.5375 6.94111C12.125 6.94164 11.7295 7.10574 11.4378 7.39744C11.1461 7.68913 10.982 8.0846 10.9815 8.49711C10.9815 8.6032 11.0236 8.70494 11.0987 8.77995C11.1737 8.85497 11.2754 8.89711 11.3815 8.89711C11.4876 8.89711 11.5893 8.85497 11.6643 8.77995C11.7394 8.70494 11.7815 8.6032 11.7815 8.49711C11.7815 8.08031 12.1203 7.74111 12.5375 7.74111C12.7563 7.74111 12.9747 7.83631 13.1223 7.99551C13.2463 8.12991 13.3083 8.29751 13.2951 8.46711C13.2367 9.22991 12.0147 10.4831 11.2583 11.0943C11.1939 11.1463 11.1473 11.2169 11.1247 11.2965C11.1022 11.3761 11.1049 11.4607 11.1324 11.5387C11.16 11.6167 11.211 11.6843 11.2786 11.732C11.3461 11.7798 11.4268 11.8055 11.5095 11.8055H13.8431C13.9492 11.8055 14.0509 11.7634 14.1259 11.6884C14.201 11.6133 14.2431 11.5116 14.2431 11.4055C14.2431 11.2994 14.201 11.1977 14.1259 11.1227C14.0509 11.0477 13.9492 11.0055 13.8431 11.0055H12.5499C13.2043 10.3583 14.0271 9.38431 14.0927 8.52831C14.1231 8.13431 13.9867 7.75191 13.7095 7.45231V7.45191Z" fill="#09A5DC"/>
<path d="M21.4413 10.6563C21.4413 6.1031 17.7389 2.3999 13.1881 2.3999C10.4545 2.3999 7.88335 3.7759 6.35855 6.0207L5.85095 5.5127C5.69495 5.3567 5.44295 5.3567 5.28295 5.5127L4.16895 6.6303L8.63975 11.1011C8.66215 11.0055 8.69015 10.9107 8.72295 10.8171C8.87094 10.3931 9.11895 10.0011 9.44295 9.6731C9.60295 9.5171 9.60295 9.2651 9.44295 9.1091L6.93735 6.5999C8.30215 4.4959 10.6677 3.1991 13.1881 3.1991C17.2981 3.1991 20.6413 6.5443 20.6413 10.6559C20.6413 13.1747 19.3445 15.5383 17.2409 16.9035L15.0509 14.7159C15.0144 14.6779 14.9706 14.6477 14.9222 14.6271C14.8737 14.6065 14.8216 14.5958 14.7689 14.5958C14.7163 14.5958 14.6642 14.6065 14.6157 14.6271C14.5672 14.6477 14.5234 14.6779 14.4869 14.7159C14.1589 15.0399 13.7669 15.2879 13.3429 15.4359C13.2497 15.4687 13.155 15.4967 13.0589 15.5199L17.5297 19.9903L18.6469 18.8759C18.8029 18.7199 18.8029 18.4639 18.6469 18.3079L17.8205 17.4827C20.0657 15.9575 21.4413 13.3879 21.4413 10.6559V10.6563Z" fill="#09A5DC"/>
</svg>
