<svg width="16" height="16" viewBox="0 0 16 16" fill="none" xmlns="http://www.w3.org/2000/svg">
<path d="M8.00036 14.25C6.97244 14.2502 5.96034 13.9969 5.05372 13.5125C4.1471 13.0281 3.37395 12.3276 2.80276 11.4729C2.23158 10.6183 1.88 9.63604 1.77917 8.61309C1.67834 7.59013 1.83137 6.55809 2.2247 5.60841C2.61804 4.65873 3.23954 3.82072 4.03414 3.16863C4.82873 2.51654 5.7719 2.0705 6.78008 1.87002C7.78825 1.66954 8.83031 1.72082 9.81393 2.01931C10.7976 2.31781 11.6924 2.85429 12.4191 3.58125C12.489 3.65093 12.5445 3.73372 12.5824 3.82489C12.6202 3.91605 12.6397 4.01379 12.6397 4.1125C12.6397 4.21121 12.6202 4.30895 12.5824 4.40011C12.5445 4.49128 12.489 4.57407 12.4191 4.64375C12.2768 4.78196 12.0862 4.85928 11.8879 4.85928C11.6895 4.85928 11.4989 4.78196 11.3566 4.64375C10.9177 4.20029 10.3949 3.84866 9.81864 3.60936C9.24241 3.37007 8.6243 3.24791 8.00036 3.25C7.09309 3.25064 6.20498 3.51109 5.44107 4.00057C4.67716 4.49004 4.06941 5.18805 3.6897 6.01204C3.30999 6.83603 3.17421 7.75153 3.29841 8.65026C3.42262 9.54899 3.80161 10.3934 4.39057 11.0835C4.97953 11.7736 5.75381 12.2806 6.62184 12.5446C7.48987 12.8085 8.41533 12.8183 9.28877 12.5729C10.1622 12.3274 10.9471 11.8369 11.5505 11.1595C12.154 10.482 12.5509 9.64589 12.6941 8.75H8.00036C7.80145 8.75 7.61068 8.67098 7.47003 8.53033C7.32938 8.38968 7.25036 8.19891 7.25036 8C7.25036 7.80109 7.32938 7.61032 7.47003 7.46967C7.61068 7.32902 7.80145 7.25 8.00036 7.25H13.5004C13.6993 7.25 13.89 7.32902 14.0307 7.46967C14.1713 7.61032 14.2504 7.80109 14.2504 8C14.2471 9.65659 13.5875 11.2444 12.4161 12.4158C11.2447 13.5872 9.65695 14.2467 8.00036 14.25Z" fill="black"/>
</svg>
