<svg width="24" height="24" viewBox="0 0 24 24" fill="none" xmlns="http://www.w3.org/2000/svg">
<g clip-path="url(#clip0_180_8156)">
<path d="M11.9994 15.0002C12.5037 15.001 13.0011 14.8843 13.4524 14.6592L15.2024 13.7842C15.744 13.516 16.1996 13.1012 16.5172 12.5869C16.8349 12.0727 17.0019 11.4797 16.9994 10.8752V9.12524C17.0013 8.52083 16.8336 7.928 16.5154 7.41412C16.1972 6.90025 15.7413 6.48592 15.1994 6.21824L13.4494 5.34323C12.9979 5.11879 12.5006 5.00199 11.9964 5.00199C11.4922 5.00199 10.9949 5.11879 10.5434 5.34323L8.7994 6.21824C8.2575 6.48592 7.80155 6.90025 7.48336 7.41412C7.16517 7.928 6.9975 8.52083 6.9994 9.12524V10.8752C6.9975 11.4796 7.16517 12.0725 7.48336 12.5863C7.80155 13.1002 8.2575 13.5145 8.7994 13.7822L10.5494 14.6572C10.9996 14.8825 11.496 15 11.9994 15.0002ZM9.9994 10.8772V9.17724L11.3264 9.84024C11.5352 9.94509 11.7657 9.99969 11.9994 9.99969C12.2331 9.99969 12.4635 9.94509 12.6724 9.84024L13.9994 9.17824V10.8782C13.9996 10.9249 13.9867 10.9706 13.9621 11.0102C13.9375 11.0499 13.9023 11.0817 13.8604 11.1022L12.1104 11.9772C12.0759 11.9945 12.0379 12.0035 11.9994 12.0035C11.9609 12.0035 11.9229 11.9945 11.8884 11.9772L10.1384 11.1022C10.096 11.0815 10.0605 11.0492 10.0359 11.009C10.0112 10.9688 9.99859 10.9224 9.9994 10.8752V10.8772ZM18.4994 21.0002H14.7594C15.0841 20.8033 15.386 20.5709 15.6594 20.3072L19.0714 17.1382C20.9442 15.2498 21.995 12.6979 21.995 10.0382C21.995 7.37861 20.9442 4.82669 19.0714 2.93823C18.1445 2.00554 17.0423 1.26535 15.8283 0.760247C14.6143 0.255148 13.3123 -0.00488281 11.9974 -0.00488281C10.6825 -0.00488281 9.38053 0.255148 8.16649 0.760247C6.95245 1.26535 5.85027 2.00554 4.9234 2.93823C3.04646 4.83581 1.99748 7.39952 2.00591 10.0685C2.01434 12.7375 3.07951 15.2946 4.9684 17.1802L8.3064 20.2802C8.5922 20.5555 8.90859 20.797 9.2494 21.0002H5.4994C5.10157 21.0002 4.72004 21.1583 4.43874 21.4396C4.15743 21.7209 3.9994 22.1024 3.9994 22.5002C3.9994 22.8981 4.15743 23.2796 4.43874 23.5609C4.72004 23.8422 5.10157 24.0002 5.4994 24.0002H18.4994C18.8972 24.0002 19.2788 23.8422 19.5601 23.5609C19.8414 23.2796 19.9994 22.8981 19.9994 22.5002C19.9994 22.1024 19.8414 21.7209 19.5601 21.4396C19.2788 21.1583 18.8972 21.0002 18.4994 21.0002ZM7.0524 15.0222C5.73891 13.6974 5.00195 11.9073 5.00195 10.0417C5.00195 8.17614 5.73891 6.38607 7.0524 5.06123C7.70015 4.40822 8.47079 3.88991 9.31985 3.53621C10.1689 3.1825 11.0796 3.00039 11.9994 3.00039C12.9192 3.00039 13.8299 3.1825 14.6789 3.53621C15.528 3.88991 16.2986 4.40822 16.9464 5.06123C18.2556 6.37721 18.994 8.15567 19.0021 10.0119C19.0101 11.8682 18.2871 13.653 16.9894 14.9802L13.5894 18.1372C13.156 18.552 12.5777 18.781 11.9778 18.7753C11.3779 18.7697 10.804 18.53 10.3784 18.1072L7.0524 15.0222Z" fill="#09A5DC"/>
</g>
<defs>
<clipPath id="clip0_180_8156">
<rect width="24" height="24" fill="white"/>
</clipPath>
</defs>
</svg>
