<svg width="25" height="37" viewBox="0 0 25 37" fill="none" xmlns="http://www.w3.org/2000/svg">
<path d="M12.4999 36.9299C17.7065 36.9299 21.9273 35.7596 21.9273 34.316C21.9273 32.8724 17.7065 31.7021 12.4999 31.7021C7.2933 31.7021 3.07251 32.8724 3.07251 34.316C3.07251 35.7596 7.2933 36.9299 12.4999 36.9299Z" fill="#CFD8DC"/>
<path fill-rule="evenodd" clip-rule="evenodd" d="M0.5 12C0.5 5.37258 5.87258 0 12.5 0C19.1274 0 24.5 5.37258 24.5 12C24.5 14.2217 23.8631 16.3967 22.6646 18.2674L12.5 34.1341L2.33537 18.2674C1.13697 16.3967 0.500012 14.2216 0.5 12Z" fill="#F44336"/>
<path d="M13.5179 16.9653C16.2592 16.4026 18.0253 13.7242 17.4626 10.9829C16.8999 8.24164 14.2214 6.47555 11.4801 7.03826C8.73886 7.60097 6.97276 10.2794 7.53547 13.0207C8.09818 15.762 10.7766 17.5281 13.5179 16.9653Z" fill="#C62828"/>
</svg>
