<svg width="24" height="24" viewBox="0 0 24 24" fill="none" xmlns="http://www.w3.org/2000/svg">
<g clip-path="url(#clip0_180_8155)">
<path d="M16.0005 16.5002C16.0005 16.898 15.8424 17.2795 15.5611 17.5609C15.2798 17.8422 14.8983 18.0002 14.5005 18.0002H9.50048C9.10266 18.0002 8.72112 17.8422 8.43982 17.5609C8.15852 17.2795 8.00048 16.898 8.00048 16.5002C8.00048 16.1024 8.15852 15.7208 8.43982 15.4395C8.72112 15.1582 9.10266 15.0002 9.50048 15.0002H14.5005C14.8983 15.0002 15.2798 15.1582 15.5611 15.4395C15.8424 15.7208 16.0005 16.1024 16.0005 16.5002ZM8.93948 12.5612C9.07878 12.7006 9.24418 12.8112 9.42623 12.8866C9.60828 12.962 9.80342 13.0009 10.0005 13.0009C10.1975 13.0009 10.3927 12.962 10.5747 12.8866C10.7568 12.8112 10.9222 12.7006 11.0615 12.5612L12.0005 11.6212L12.9395 12.5612C13.2209 12.8426 13.6025 13.0007 14.0005 13.0007C14.3984 13.0007 14.7801 12.8426 15.0615 12.5612C15.3429 12.2798 15.501 11.8981 15.501 11.5002C15.501 11.1022 15.3429 10.7206 15.0615 10.4392L14.1215 9.50019L15.0615 8.56119C15.3429 8.2798 15.501 7.89814 15.501 7.50019C15.501 7.10224 15.3429 6.72059 15.0615 6.43919C14.7801 6.1578 14.3984 5.99971 14.0005 5.99971C13.6025 5.99971 13.2209 6.1578 12.9395 6.43919L12.0005 7.37919L11.0615 6.43919C10.7801 6.1578 10.3984 5.99971 10.0005 5.99971C9.60253 5.99971 9.22088 6.1578 8.93948 6.43919C8.65809 6.72059 8.5 7.10224 8.5 7.50019C8.5 7.89814 8.65809 8.2798 8.93948 8.56119L9.87948 9.50019L8.93948 10.4392C8.80009 10.5785 8.68952 10.7439 8.61407 10.9259C8.53863 11.108 8.4998 11.3031 8.4998 11.5002C8.4998 11.6973 8.53863 11.8924 8.61407 12.0744C8.68952 12.2565 8.80009 12.4219 8.93948 12.5612ZM5.50048 15.0002H1.50048C1.10266 15.0002 0.721125 15.1582 0.43982 15.4395C0.158516 15.7208 0.000480574 16.1024 0.000480574 16.5002C0.000480574 16.898 0.158516 17.2795 0.43982 17.5609C0.721125 17.8422 1.10266 18.0002 1.50048 18.0002H5.50048C5.89831 18.0002 6.27984 17.8422 6.56114 17.5609C6.84245 17.2795 7.00048 16.898 7.00048 16.5002C7.00048 16.1024 6.84245 15.7208 6.56114 15.4395C6.27984 15.1582 5.89831 15.0002 5.50048 15.0002ZM6.56148 6.43919C6.42218 6.2998 6.25678 6.18923 6.07473 6.11378C5.89268 6.03834 5.69754 5.99951 5.50048 5.99951C5.30342 5.99951 5.10828 6.03834 4.92623 6.11378C4.74418 6.18923 4.57878 6.2998 4.43948 6.43919L3.50048 7.37919L2.56148 6.43919C2.28009 6.1578 1.89843 5.99971 1.50048 5.99971C1.10253 5.99971 0.720875 6.1578 0.439481 6.43919C0.158086 6.72059 2.96497e-09 7.10224 0 7.50019C-2.96497e-09 7.89814 0.158086 8.2798 0.439481 8.56119L1.37948 9.50019L0.439481 10.4392C0.158086 10.7206 -2.96498e-09 11.1022 0 11.5002C2.96497e-09 11.8981 0.158086 12.2798 0.439481 12.5612C0.720875 12.8426 1.10253 13.0007 1.50048 13.0007C1.89843 13.0007 2.28009 12.8426 2.56148 12.5612L3.50048 11.6212L4.43948 12.5612C4.72088 12.8426 5.10253 13.0007 5.50048 13.0007C5.89843 13.0007 6.28009 12.8426 6.56148 12.5612C6.84288 12.2798 7.00096 11.8981 7.00096 11.5002C7.00096 11.1022 6.84288 10.7206 6.56148 10.4392L5.62148 9.50019L6.56148 8.56119C6.70087 8.42189 6.81145 8.25649 6.88689 8.07444C6.96233 7.89239 7.00116 7.69726 7.00116 7.50019C7.00116 7.30313 6.96233 7.108 6.88689 6.92594C6.81145 6.74389 6.70087 6.57849 6.56148 6.43919ZM22.5005 15.0002H18.5005C18.1027 15.0002 17.7211 15.1582 17.4398 15.4395C17.1585 15.7208 17.0005 16.1024 17.0005 16.5002C17.0005 16.898 17.1585 17.2795 17.4398 17.5609C17.7211 17.8422 18.1027 18.0002 18.5005 18.0002H22.5005C22.8983 18.0002 23.2798 17.8422 23.5611 17.5609C23.8424 17.2795 24.0005 16.898 24.0005 16.5002C24.0005 16.1024 23.8424 15.7208 23.5611 15.4395C23.2798 15.1582 22.8983 15.0002 22.5005 15.0002ZM22.6215 9.50019L23.5615 8.56119C23.7008 8.42186 23.8113 8.25645 23.8867 8.0744C23.9622 7.89235 24.001 7.69724 24.001 7.50019C24.001 7.30315 23.9622 7.10803 23.8867 6.92598C23.8113 6.74394 23.7008 6.57852 23.5615 6.43919C23.4221 6.29986 23.2567 6.18933 23.0747 6.11393C22.8926 6.03852 22.6975 5.99971 22.5005 5.99971C22.3034 5.99971 22.1083 6.03852 21.9263 6.11393C21.7442 6.18933 21.5788 6.29986 21.4395 6.43919L20.5005 7.37919L19.5615 6.43919C19.4221 6.29986 19.2567 6.18933 19.0747 6.11393C18.8926 6.03852 18.6975 5.99971 18.5005 5.99971C18.1025 5.99971 17.7209 6.1578 17.4395 6.43919C17.3001 6.57852 17.1896 6.74394 17.1142 6.92598C17.0388 7.10803 17 7.30315 17 7.50019C17 7.89814 17.1581 8.2798 17.4395 8.56119L18.3795 9.50019L17.4395 10.4392C17.1581 10.7206 17 11.1022 17 11.5002C17 11.8981 17.1581 12.2798 17.4395 12.5612C17.7209 12.8426 18.1025 13.0007 18.5005 13.0007C18.8984 13.0007 19.2801 12.8426 19.5615 12.5612L20.5005 11.6212L21.4395 12.5612C21.7209 12.8426 22.1025 13.0007 22.5005 13.0007C22.8984 13.0007 23.2801 12.8426 23.5615 12.5612C23.8429 12.2798 24.001 11.8981 24.001 11.5002C24.001 11.1022 23.8429 10.7206 23.5615 10.4392L22.6215 9.50019Z" fill="#09A5DC"/>
</g>
<defs>
<clipPath id="clip0_180_8155">
<rect width="24" height="24" fill="white"/>
</clipPath>
</defs>
</svg>
