<svg width="23" height="28" viewBox="0 0 23 28" fill="none" xmlns="http://www.w3.org/2000/svg">
<path d="M11.4931 13.0895C13.2913 13.0895 14.8482 12.4445 16.1208 11.172C17.3929 9.89973 18.038 8.343 18.038 6.54457C18.038 4.74668 17.3931 3.18978 16.1206 1.91704C14.848 0.644941 13.2911 0 11.4931 0C9.6946 0 8.13781 0.644941 6.86555 1.91726C5.59329 3.18957 4.94808 4.74652 4.94808 6.54457C4.94808 8.343 5.59324 9.89994 6.86561 11.1723C8.13829 12.4444 9.69524 13.0895 11.493 13.0895H11.4931ZM7.9917 3.0432C8.96793 2.06692 10.1132 1.5924 11.4931 1.5924C12.8728 1.5924 14.0182 2.06692 14.9946 3.0432C15.9709 4.01963 16.4456 5.16505 16.4456 6.54452C16.4456 7.92441 15.9709 9.06967 14.9946 10.0461C14.0182 11.0226 12.8728 11.4971 11.4931 11.4971C10.1136 11.4971 8.9684 11.0224 7.9917 10.0461C7.01522 9.06988 6.54048 7.92447 6.54048 6.54457C6.54048 5.16505 7.01522 4.01963 7.9917 3.0432ZM22.945 20.8949C22.9083 20.3655 22.8341 19.7878 22.7248 19.178C22.6145 18.5634 22.4725 17.9826 22.3025 17.4516C22.1267 16.9029 21.8881 16.361 21.5926 15.8416C21.2864 15.3026 20.9266 14.8332 20.5227 14.447C20.1004 14.043 19.5833 13.7181 18.9854 13.4811C18.3896 13.2454 17.7293 13.126 17.023 13.126C16.7456 13.126 16.4774 13.2398 15.9593 13.5771C15.591 13.817 15.2216 14.0551 14.8512 14.2915C14.4952 14.5183 14.013 14.7308 13.4173 14.9232C12.8362 15.1113 12.2462 15.2066 11.6637 15.2066C11.0816 15.2066 10.4915 15.1113 9.90997 14.9232C9.31502 14.731 8.83259 14.5186 8.47721 14.2917C8.06484 14.0282 7.69174 13.7877 7.3681 13.5769C6.85043 13.2396 6.58214 13.1258 6.30478 13.1258C5.59823 13.1258 4.93816 13.2454 4.34252 13.4814C3.74503 13.7179 3.22778 14.0428 2.80506 14.4472C2.40122 14.8336 2.04134 15.3028 1.73532 15.8416C1.44034 16.3609 1.20151 16.9026 1.02568 17.4518C0.85585 17.9828 0.71388 18.5634 0.603594 19.178C0.494105 19.787 0.420121 20.3648 0.383395 20.8956C0.347306 21.4145 0.329102 21.9545 0.329102 22.5002C0.329102 23.9187 0.780008 25.0669 1.66919 25.9138C2.54739 26.7496 3.7092 27.1733 5.12243 27.1733H18.2066C19.6194 27.1733 20.7812 26.7496 21.6596 25.9139C22.549 25.0676 22.9999 23.9189 22.9999 22.5C22.9997 21.9525 22.9813 21.4124 22.945 20.8949ZM20.5617 24.7601C19.9814 25.3124 19.211 25.5809 18.2063 25.5809H5.12248C4.11765 25.5809 3.34725 25.3124 2.76716 24.7604C2.19811 24.2186 1.92155 23.4792 1.92155 22.5002C1.92155 21.991 1.93832 21.4883 1.97197 21.0056C2.00466 20.5321 2.07164 20.012 2.17099 19.4593C2.26902 18.9134 2.39379 18.4012 2.54224 17.9374C2.68469 17.4927 2.87893 17.0524 3.11983 16.6282C3.34974 16.2239 3.61426 15.8771 3.90616 15.5976C4.17922 15.3362 4.5234 15.1223 4.92887 14.9618C5.30388 14.8133 5.72539 14.7321 6.18293 14.7198C6.23866 14.7495 6.33801 14.8061 6.49887 14.911C6.82623 15.1243 7.20352 15.3677 7.62067 15.6341C8.0909 15.9339 8.69662 16.2046 9.42037 16.4383C10.1603 16.6775 10.9149 16.799 11.6639 16.799C12.413 16.799 13.1678 16.6775 13.9073 16.4385C14.6316 16.2044 15.2372 15.9339 15.7081 15.6337C16.1349 15.3609 16.5017 15.1245 16.829 14.911C16.9899 14.8063 17.0892 14.7495 17.145 14.7199C17.6027 14.7321 18.0242 14.8133 18.3994 14.9618C18.8047 15.1223 19.1489 15.3364 19.4219 15.5976C19.7138 15.8768 19.9783 16.2237 20.2082 16.6284C20.4493 17.0524 20.6438 17.4929 20.786 17.9372C20.9347 18.4016 21.0597 18.9136 21.1575 19.4591C21.2566 20.0128 21.3238 20.5332 21.3566 21.0059V21.0063C21.3904 21.487 21.4074 21.9896 21.4076 22.5002C21.4074 23.4794 21.1308 24.2187 20.5617 24.7601H20.5617Z" fill="#44475C"/>
</svg>
