<svg width="22" height="24" viewBox="0 0 22 24" fill="none" xmlns="http://www.w3.org/2000/svg">
<path d="M21 12C20.9985 10.4677 20.6422 8.95656 19.959 7.585L20.473 7.228C20.7993 7.00055 21.0219 6.6528 21.0919 6.26124C21.1618 5.86968 21.0734 5.46636 20.846 5.14C20.6186 4.81369 20.2708 4.59109 19.8792 4.52114C19.4877 4.45119 19.0844 4.53963 18.758 4.767L18.243 5.125C16.7161 3.51343 14.695 2.45764 12.5 2.125V1.5C12.5 1.10218 12.342 0.720644 12.0607 0.43934C11.7794 0.158035 11.3978 0 11 0C10.6022 0 10.2207 0.158035 9.93935 0.43934C9.65805 0.720644 9.50001 1.10218 9.50001 1.5V2.125C7.30504 2.45764 5.2839 3.51343 3.75701 5.125L3.24201 4.767C2.91565 4.53963 2.51233 4.45119 2.12077 4.52114C1.72921 4.59109 1.38147 4.81369 1.15401 5.14C0.926637 5.46636 0.8382 5.86968 0.908148 6.26124C0.978096 6.6528 1.2007 7.00055 1.52701 7.228L2.04101 7.585C1.35642 8.95606 1.00004 10.4675 1.00004 12C1.00004 13.5325 1.35642 15.0439 2.04101 16.415L1.52701 16.772C1.2007 16.9995 0.978096 17.3472 0.908148 17.7388C0.8382 18.1303 0.926637 18.5336 1.15401 18.86C1.38147 19.1863 1.72921 19.4089 2.12077 19.4789C2.51233 19.5488 2.91565 19.4604 3.24201 19.233L3.75701 18.875C5.2839 20.4866 7.30504 21.5424 9.50001 21.875V22.5C9.50001 22.8978 9.65805 23.2794 9.93935 23.5607C10.2207 23.842 10.6022 24 11 24C11.3978 24 11.7794 23.842 12.0607 23.5607C12.342 23.2794 12.5 22.8978 12.5 22.5V21.875C14.695 21.5424 16.7161 20.4866 18.243 18.875L18.758 19.233C19.0844 19.4604 19.4877 19.5488 19.8792 19.4789C20.2708 19.4089 20.6186 19.1863 20.846 18.86C21.0734 18.5336 21.1618 18.1303 21.0919 17.7388C21.0219 17.3472 20.7993 16.9995 20.473 16.772L19.959 16.415C20.6422 15.0434 20.9985 13.5323 21 12ZM11 19C9.61554 19 8.26216 18.5895 7.11102 17.8203C5.95988 17.0511 5.06267 15.9579 4.53285 14.6788C4.00304 13.3997 3.86442 11.9922 4.13451 10.6344C4.40461 9.2765 5.0713 8.02922 6.05026 7.05025C7.02923 6.07128 8.27651 5.4046 9.63438 5.1345C10.9922 4.86441 12.3997 5.00303 13.6788 5.53284C14.9579 6.06266 16.0511 6.95986 16.8203 8.11101C17.5895 9.26215 18 10.6155 18 12C17.9976 13.8558 17.2594 15.6349 15.9471 16.9471C14.6349 18.2594 12.8558 18.9976 11 19Z" fill="#09A5DC"/>
</svg>
