<svg width="20" height="18" viewBox="0 0 20 18" fill="none" xmlns="http://www.w3.org/2000/svg">
<path d="M13.1038 10.2709L12.1872 9.35425C12.5483 8.36814 12.3608 7.54869 11.6247 6.89592C10.8886 6.24314 10.09 6.07647 9.22884 6.39592L8.31217 5.47925C8.54829 5.32647 8.81217 5.21536 9.10384 5.14592C9.39551 5.07647 9.69412 5.04175 9.99967 5.04175C10.9858 5.04175 11.8226 5.3855 12.5101 6.073C13.1976 6.7605 13.5413 7.5973 13.5413 8.58342C13.5413 8.88897 13.5031 9.19105 13.4268 9.48967C13.3504 9.78828 13.2427 10.0487 13.1038 10.2709ZM15.7913 12.9584L14.958 12.1251C15.6386 11.6251 16.2323 11.0661 16.7393 10.448C17.2462 9.82994 17.6177 9.20842 17.8538 8.58342C17.1594 7.04175 16.1177 5.823 14.7288 4.92717C13.34 4.03133 11.833 3.58341 10.208 3.58341C9.62467 3.58341 9.02745 3.63897 8.41634 3.75008C7.80523 3.86119 7.32606 3.99314 6.97884 4.14592L6.02051 3.16675C6.50662 2.94453 7.12815 2.75008 7.88509 2.58341C8.64203 2.41675 9.38162 2.33341 10.1038 2.33341C12.09 2.33341 13.9059 2.89939 15.5518 4.03133C17.1976 5.16328 18.4025 6.68064 19.1663 8.58342C18.8052 9.4723 18.34 10.2848 17.7705 11.0209C17.2011 11.757 16.5413 12.4029 15.7913 12.9584ZM16.9997 17.6667L13.4997 14.2292C13.0136 14.4237 12.465 14.573 11.8538 14.6772C11.2427 14.7813 10.6247 14.8334 9.99967 14.8334C7.9719 14.8334 6.13162 14.2674 4.47884 13.1355C2.82606 12.0036 1.61079 10.4862 0.833008 8.58342C1.11079 7.86119 1.4962 7.15633 1.98926 6.46883C2.48231 5.78133 3.08301 5.12508 3.79134 4.50008L1.16634 1.87508L2.04134 0.979248L17.8122 16.7501L16.9997 17.6667ZM4.64551 5.37508C4.13162 5.75008 3.63509 6.24314 3.15592 6.85425C2.67676 7.46536 2.33301 8.04175 2.12467 8.58342C2.83301 10.1251 3.89898 11.3438 5.32259 12.2397C6.7462 13.1355 8.36078 13.5834 10.1663 13.5834C10.6247 13.5834 11.0761 13.5556 11.5205 13.5001C11.965 13.4445 12.2983 13.3612 12.5205 13.2501L11.1872 11.9167C11.0344 11.9862 10.8469 12.0383 10.6247 12.073C10.4025 12.1077 10.1941 12.1251 9.99967 12.1251C9.02745 12.1251 8.19412 11.7848 7.49967 11.1042C6.80523 10.4237 6.45801 9.58342 6.45801 8.58342C6.45801 8.37508 6.47537 8.16675 6.51009 7.95842C6.54481 7.75008 6.5969 7.56258 6.66634 7.39592L4.64551 5.37508Z" fill="#3B4054"/>
</svg>
